<?xml version="1.0" encoding="utf-8"?>
<!-- Generator: Adobe Illustrator 19.0.0, SVG Export Plug-In . SVG Version: 6.00 Build 0)  -->
<svg version="1.1" id="me" xmlns="http://www.w3.org/2000/svg" xmlns:xlink="http://www.w3.org/1999/xlink" x="0px" y="0px"
	 viewBox="0 0 166.6 184.8" style="enable-background:new 0 0 166.6 184.8;" xml:space="preserve" width="35px" height="35px">
<style type="text/css">
	.st0{fill:#ffffff;}
</style>
<g id="XMLID_2_">
	<path id="XMLID_3_" class="st0" d="M6.5,0H41l46.2,115.2h0.3L134,0h34.2v184.8H134c-0.4,0-0.6-0.2-0.6-0.6v-79.5l-46.1,80.1
		l-46.1-80.1v45.6L6.5,138.6V0z M8,1.5v9.2h0.3c0-0.4,0.3-1.3,0.9-2.8C9,7.7,8.9,7.2,8.9,6.8l0.3-0.6C9,5.8,8.9,5.4,8.9,4.9l0.3-0.6
		C9,3.9,8.9,3.6,8.9,3.4c0-0.4,0.2-1,0.6-1.8H8z M8,74.2v0.9h0.3v-0.9H8z M9.5,115.8c0.3,0,0.6,0.3,0.9,0.9
		c-0.4,0.8-0.9,1.2-1.5,1.2c-0.4-0.2-0.7-0.3-0.9-0.3v0.9h0.9l2.2-0.9c0-0.8,0.4-1.7,1.2-2.8l-0.9-0.6h-0.6
		C10.5,114.3,10.1,114.8,9.5,115.8z M8.3,121.1v0.3c0.1,0.4,0.3,0.6,0.6,0.6c0.4-0.2,0.7-0.3,0.9-0.3v-0.9
		C9.5,121,9,121.1,8.3,121.1z M9.2,49.3c0,0.3-0.2,1.2-0.6,2.8c0.2,0.4,0.3,0.7,0.3,0.9c-0.2,0.4-0.3,0.8-0.3,1.2h0.6l0.3-3.1v-1.2
		l0.3-0.6H9.2z M9.9,86.6l0.3,0.6v0.3c0,0.3-0.3,0.6-0.9,0.9L9.5,89v0.3l-0.6,0.9c0.3,1,0.6,1.5,0.9,1.5c0.5-2.1,0.9-3.1,1.2-3.1
		c-0.2-1.1-0.3-2.1-0.3-2.8L9.9,86.6z M10.8,61.3l0.3,0.6c-0.8,1.6-1.2,2.8-1.2,3.4v1.5c0.3,0,0.9-1.8,1.8-5.5H10.8z M10.8,120.7
		c0,0.5-0.1,0.9-0.3,1.2c0.2,0.4,0.3,0.9,0.3,1.5H12l-0.6-0.9v-1.2l0.3-0.6H10.8z M10.5,137.7c0.2,0.4,0.3,0.7,0.3,0.9l0.6-0.3
		c-0.2-0.4-0.3-0.7-0.3-0.9L10.5,137.7z M12,48.7v0.6h0.6v-1.2C12.2,48.1,12,48.3,12,48.7z M12.3,119.5c0,0.5-0.1,0.9-0.3,1.2h0.9
		v-1.2H12.3z M13.2,68.4c0,0.5-0.1,0.9-0.3,1.2l0.6,0.3l0.3-1.2L13.2,68.4z M13.6,119.2h0.9c0.4,0,0.6-0.2,0.6-0.6v-1.5
		C14.8,117.1,14.3,117.8,13.6,119.2z M14.2,1.5c0.4,0.5,0.6,2,0.6,4.3l0.6-0.3l-0.3-0.6c0-0.5,0.4-0.8,1.2-0.9l-0.6-0.9l0.6-0.9
		c0-0.4-0.2-0.6-0.6-0.6H14.2z M14.2,106.9l0.9,3.1h0.6l-0.3-0.6v-0.9c0-0.2,0.1-0.3,0.3-0.3l-0.3-0.6v-0.6L16,106V105
		C14.8,105.2,14.2,105.8,14.2,106.9z M14.5,120.7v0.9h0.3v-0.9H14.5z M16.9,122.9c0,0.4-0.8,0.6-2.5,0.6l0.6,0.9
		c-0.4,0.6-0.6,1.3-0.6,2.2c0.5,0,0.9,0.1,1.2,0.3c0.7-1.8,1.4-2.8,2.2-2.8v-0.3C17.9,123.5,17.6,123.2,16.9,122.9z M15.4,8.6
		l-0.6,2.8h0.6l0.3-2.2V8.6H15.4z M14.8,139.2v0.6h0.6C15.4,139.4,15.2,139.2,14.8,139.2z M20.3,121.4c0,2.1-0.4,3.1-1.2,3.1v0.3
		c1.6,0.2,2.5,0.6,2.5,1.2v0.6c0,0.3-0.4,0.7-1.2,1.2h-0.6c-0.4,0-0.6-0.3-0.6-0.9h-0.9l0.3,0.6v0.3c0,0.3-0.3,0.6-0.9,0.9l-0.9-0.6
		c-0.7,0.6-1.2,0.9-1.5,0.9c0.8,1.8,1.3,2.8,1.5,2.8l0.3,0.6c0,0.4-0.3,0.6-0.9,0.6v0.3l0.6,0.9v0.3l-0.6,0.9
		c0.2,0.6,0.8,0.9,1.8,0.9c0.5-0.4,1-0.6,1.5-0.6l-0.6-0.9v-0.3l0.3-0.6c-1.2,0-1.8-0.2-1.8-0.6c0.1-1,0.3-1.5,0.6-1.5l-0.3-0.6
		v-0.9c0.1-0.4,0.3-0.6,0.6-0.6h0.9c0.4,0.1,0.6,0.3,0.6,0.6v0.3l-0.6,0.9c0.6,0,1.2,0.3,1.8,0.9h0.9c0-0.5,0.2-1,0.6-1.5v-0.3
		c-0.8,0-1.2-0.2-1.2-0.6v-1.2c0-0.4,0.8-0.9,2.5-1.5H24c1,1.8,1.7,2.8,2.2,2.8l0.3-1.5c-0.3,0-0.7-0.4-1.2-1.2V126
		c0-0.4,0.3-0.6,0.9-0.6v-0.3c-1.8,0-2.8-0.5-2.8-1.5v-0.9C23.2,122.6,22.1,122.2,20.3,121.4z M16,100.1l0.3,0.6v0.3
		c0,0.9-0.2,1.7-0.6,2.5c0.2,0.4,0.3,0.7,0.3,0.9h0.3c0.4,0,0.6-0.3,0.6-0.9l-0.3-1.5c0.5-0.4,0.9-0.6,1.2-0.6
		c0-0.3-0.4-0.7-1.2-1.2H16z M17.3,2.2c0.4,0.1,0.6,0.3,0.6,0.6c-0.4,0.7-0.6,1.2-0.6,1.5l0.3,1.5l-0.3,0.6c0.2,0.4,0.3,0.8,0.3,1.2
		c-0.2,0.4-0.3,0.7-0.3,0.9l0.6,0.3l2.5-7.4h-2.5C17.5,1.6,17.3,1.8,17.3,2.2z M17.9,98.9v0.6h0.3v-0.6H17.9z M19.7,116.4v1.5
		c-1.1,1.1-1.7,2.1-1.8,3.1h2.5c-0.4-0.7-0.6-1.3-0.6-1.8v-0.6c1-0.8,1.5-1.3,1.5-1.5c-0.3,0-0.7-0.2-1.2-0.6H19.7z M19.1,91.2h0.6
		v-0.6C19.3,90.6,19.1,90.8,19.1,91.2z M19.7,135.8c0,0.7,0.8,1.6,2.5,2.8v0.6h0.6c0-0.6,0.2-0.9,0.6-0.9h0.3v0.3l-0.6,0.9l0.6,0.3
		h0.6c0-1.5-1.4-2.8-4.3-4H19.7z M21.6,108.4v0.9h1.5c-0.2-0.4-0.3-0.7-0.3-0.9H21.6z M22.2,2.2c0.4,0.1,0.6,0.3,0.6,0.6v0.3L22.2,4
		c0.4,0.1,0.6,0.3,0.6,0.6v0.3l-0.6,0.9c0.4,0.1,0.6,0.3,0.6,0.6v0.3l-0.6,0.9c0.4,0.1,0.6,0.3,0.6,0.6v0.3l-0.3,0.6l0.6,0.3h0.3
		c0.3,0,0.6-0.3,0.9-0.9C24.1,8.2,24,7.9,24,7.7C24.6,7.5,25,7.3,25,7.1c-0.2-0.4-0.3-0.7-0.3-0.9l0.9-0.6l-0.3-0.6
		c0-0.2,0.1-0.3,0.3-0.3L25.3,4c0.1-0.4,0.3-0.6,0.6-0.6c-0.4-0.7-0.6-1.2-0.6-1.5c0.2,0,0.3-0.1,0.3-0.3h-2.8
		C22.4,1.6,22.2,1.8,22.2,2.2z M22.8,118.6v0.3c1.1,0.2,1.7,0.3,1.8,0.3v-0.6l-0.6-0.9C23.2,118,22.8,118.3,22.8,118.6z M23.1,50.8
		v0.6h0.3v-0.6H23.1z M23.4,49.3v0.6h0.3v-0.6H23.4z M23.7,115.8v0.3h0.6v-0.3H23.7z M24.3,121.7v0.6H25
		C25,121.9,24.7,121.7,24.3,121.7z M26.2,107.8L25,110v0.6h0.3c0-1.3,0.8-2,2.5-2.2v-0.3C27.1,108.1,26.5,108,26.2,107.8z
		 M25.3,99.8v0.3h0.6v-0.3H25.3z M25.6,122.6c0.3,0,0.7,0.6,1.2,1.8v0.9l0.6,0.3v-0.9c-0.4-1.4-0.6-2.5-0.6-3.4
		C26.5,121.4,26.1,121.8,25.6,122.6z M25.9,119.5v0.6h0.3v-0.6H25.9z M26.2,133.7c1,0.1,1.5,0.4,1.5,0.9v0.6c-0.4,0.8-1,1.2-1.8,1.2
		v0.3h0.3l1.5-0.3c0.1,0.4,0.3,0.6,0.6,0.6h0.3c0-0.8,0.3-1.2,0.9-1.2v-0.3c-0.8,0-1.2-0.7-1.2-2.2v-0.9
		C26.9,132.8,26.2,133.2,26.2,133.7z M31.7,135.2c0,0.6-0.5,1-1.5,1.2c0,0.6-0.3,0.9-0.9,0.9c0.4,0.8,0.6,1.6,0.6,2.5v0.9
		c-1.2,1.6-2,2.4-2.5,2.5h-0.9l-0.6-0.3v0.6c2.6,0.8,4.2,1.2,4.9,1.2c0-0.4,0.5-0.6,1.5-0.6v-0.3l-0.6-0.9v-0.3
		c0.7-1.6,1.2-2.5,1.5-2.5h0.6l0.9,0.6c1.8-1.1,2.8-1.8,2.8-2.2c-0.6,0-0.9-0.1-0.9-0.3l-0.6,0.3h-0.6l-0.9-0.6
		c0,0.3-0.3,0.6-0.9,0.9h-0.3c-0.2,0-0.7-0.5-1.5-1.5v-0.6c0.1-0.4,0.3-0.6,0.6-0.6c-0.2-0.4-0.3-0.7-0.3-0.9H31.7z M26.5,93.6
		l0.3,1.5h0.9l-0.3-0.6l0.3-1.5C27.2,93.4,26.8,93.6,26.5,93.6z M27.7,2.2l0.9,1.2c0,0.4-0.3,0.6-0.9,0.6c0,0.3,0.3,0.6,0.9,0.9
		c0-0.3,0.3-0.6,0.9-0.9l-0.3-0.6V3.1l0.6-0.9L29,1.5C28.4,2,28,2.2,27.7,2.2z M28.6,8.9c0.2,0.4,0.3,0.8,0.3,1.2
		c0.4,0,0.9-0.8,1.5-2.5V5.5L28.6,8.9z M28.6,104.7v0.3c0.6,0,0.9,0.4,0.9,1.2h0.6l-0.3-0.6v-0.9h0.6v-0.3h-0.3
		C29.8,104.6,29.3,104.7,28.6,104.7z M29.6,88.7c0,0.3-0.2,0.7-0.6,1.2c0.2,0,0.5,0.1,0.9,0.3c0-0.4,0.1-0.6,0.3-0.6
		c-0.2-0.4-0.3-0.7-0.3-0.9H29.6z M31.7,127.2c0,1.2-0.3,1.8-0.9,1.8h-0.6l-0.6-0.3l-0.3,2.2v0.6c0.5,0,0.9,0.1,1.2,0.3l0.3-0.6
		l-0.9-1.5l0.6-0.3c0.4,0.2,0.7,0.3,0.9,0.3c0-0.4,0.3-0.6,0.9-0.6l-0.3-0.6v-0.3l0.3-0.6L31.7,127.2z M29.6,87.2v0.3
		c0.4,0,0.6,0.2,0.6,0.6h0.3v-0.6l-0.6-0.3H29.6z M30.2,83.8v0.3c0.2,0,0.5,0.1,0.9,0.3l0.3-0.6H30.2z M30.2,122v0.9
		c0.7,0,1.2,0.1,1.5,0.3v-0.3l-1.2-0.9H30.2z M30.5,81.9c0.4,0.5,0.6,0.9,0.6,1.2h0.3l0.3-1.2H30.5z M30.5,85.6v0.6
		c0.4,0,0.6-0.2,0.6-0.6H30.5z M31.1,80.1v0.3h0.6v-0.3H31.1z M31.7,78.2v0.3h0.6v-0.3H31.7z M32,76.4v0.3H33v-0.3H32z M32,120.1
		h0.3c0.4-0.2,0.7-0.3,0.9-0.3v-0.6H33C32.7,119.2,32.3,119.5,32,120.1z M33,124.8l-0.3,0.6c0.6,0,1.2,0.8,1.8,2.5
		c2.3,1,3.4,2.2,3.4,3.7h1.2l-0.3-0.6v-0.6l0.9-1.2v-2.8c0-0.4-0.6-0.7-1.8-0.9c0,0.4-0.2,0.6-0.6,0.6h-0.9c-0.4,0-0.6-0.3-0.6-0.9
		h-1.2L33,124.8z M32.7,129.1v0.3h0.6v-0.3H32.7z M33.3,74.9v1.5h0.3c0-0.7,0.1-1.2,0.3-1.5H33.3z M33.3,114.6v0.6
		c0.8,0,1.3,0.6,1.5,1.8h0.3v-0.3c-0.3-1.4-0.7-2.2-1.2-2.2H33.3z M34.5,122.9h0.3c0.4,0,0.6-0.2,0.6-0.6h-0.3
		C34.7,122.3,34.5,122.5,34.5,122.9z M36,104.1c0,1.6-0.3,3-0.9,4l1.5,0.3c0.1-0.4,0.3-0.6,0.6-0.6c-0.4-0.7-0.6-1.2-0.6-1.5
		c0.3,0,0.6-0.3,0.9-0.9V105C37.2,105,36.7,104.7,36,104.1z M35.1,118v0.6h0.3V118H35.1z M37.3,132.5c0,0.8-0.3,1.2-0.9,1.2h-0.6
		l-0.6-0.3v0.6c0,0.4,0.5,0.6,1.5,0.6c0-0.3,0.3-0.6,0.9-0.9h0.3c0.4,0.1,0.6,0.3,0.6,0.6v0.9l-0.3,1.5h0.9c0.4,0,0.6-0.2,0.6-0.6
		v-2.5l-0.6-0.9l-0.6,0.3h-0.3L37.3,132.5z M36.7,146.9v0.3l1.5,0.3c0-0.4-0.3-0.6-0.9-0.6H36.7z M38.8,115.5
		c0.4,0.1,0.6,0.3,0.6,0.6v0.3c0,0.5-0.8,1-2.5,1.5v0.3c0,0.3,0.3,0.6,0.9,0.9c0-0.5,0.5-1,1.5-1.5l0.3-0.6v-2.5
		C39.4,114.6,39.1,114.9,38.8,115.5z M37.6,127.2l0.3,0.6l-0.6,0.3l-0.3-0.6L37.6,127.2z M37.3,142l-0.3,0.6v0.3
		c0.2,0.6,0.8,0.9,1.8,0.9h0.3C38.6,142.8,38,142.2,37.3,142z M38.5,66.8l-1.2,3.7l0.3,0.6v0.9l-0.3,0.6l0.6,0.3
		c0-2.1,0.4-3.8,1.2-5.2v-0.9H38.5z M38.5,147.5v0.3h0.9v-0.3H38.5z M40,93.3c0,0.3-0.2,0.7-0.6,1.2v1.8h0.3c0-0.4,0.4-1.4,1.2-3.1
		H40z M39.7,55.8l0.6,0.3c0-0.6,0.1-1.3,0.3-2.2C40.3,53.9,40,54.5,39.7,55.8z M41.3,16.6c0,0.7-0.1,1.6-0.3,2.8h0.6
		c0-0.5,0.1-0.9,0.3-1.2c-0.2-0.4-0.3-0.9-0.3-1.5H41.3z M45.6,29.3c-0.8,2.5-1.4,4.7-1.8,6.8c-0.6,3.3-1.4,5.7-2.5,7.1v7.7
		c0.4,0,0.7-1.1,0.9-3.4c1-2,1.5-3.2,1.5-3.7v-4c0-1.1,0.3-2,0.9-2.8c-0.4,0-0.6-0.2-0.6-0.6V36c1-2,1.7-3.9,2.2-5.5h0.3
		c-0.2-0.4-0.3-0.8-0.3-1.2H45.6z M42.2,87.5v0.3c0.9,0,1.5,0.1,1.8,0.3c0-0.2,0.4-1.4,1.2-3.7C43.8,84.9,42.8,85.9,42.2,87.5z
		 M45,81.9v0.6c0.4,0,0.6-0.2,0.6-0.6H45z M45.6,108.4v0.3c0,0.3,0.3,0.6,0.9,0.9h0.3V109C46.5,109,46.1,108.8,45.6,108.4z M46.8,77
		v0.6h0.3V77H46.8z M49,68.4l-1.8,8v0.3h0.3c0.8-3,1.6-5.4,2.5-7.4c-0.2-0.4-0.3-0.7-0.3-0.9H49z M49,108.4v1.8h0.3v-1.8H49z
		 M53.9,88.4v1.2h0.3v-1.2H53.9z M54.8,107.8v0.3c0.2,0.4,0.3,0.7,0.3,0.9h0.3v-0.3c-0.2-0.4-0.3-0.7-0.3-0.9H54.8z M60.7,102.9
		l-0.3,1.5v3.4h0.3c0-0.4,0.2-1.1,0.6-2.2c-0.2-0.4-0.3-0.8-0.3-1.2l0.6-1.2l-0.6-0.3H60.7z M60.4,112.4v1.8c0.5,0,0.8-0.5,0.9-1.5
		l-0.6-0.3H60.4z M60.4,116.1v4l0.6-0.3l-0.3-1.2c0-0.4,0.2-1.1,0.6-2.2l-0.6-0.3H60.4z M61,80.7v0.9h0.3v-0.9H61z M64.4,134.6
		l-0.3,0.6c1,0.5,1.5,1,1.5,1.5h0.9c0-1,0.3-1.5,0.9-1.5v-0.3c-0.9,0-1.5-0.1-1.8-0.3c0,0.4-0.2,0.6-0.6,0.6
		C65,134.8,64.8,134.6,64.4,134.6z M64.4,136.5v0.3c0.2,0.4,0.3,0.7,0.3,0.9h0.6v-0.6c-0.4,0-0.6-0.2-0.6-0.6H64.4z M64.4,138.3v0.3
		c0.2,0.4,0.3,0.8,0.3,1.2c-0.2,0.4-0.3,0.7-0.3,0.9l0.6,0.3l0.6-0.3l-0.9-2.5H64.4z M64.7,129.7v0.6H65c0.4-0.2,0.7-0.3,0.9-0.3
		v-0.3H64.7z M64.7,131.5v0.6c0.6,0,0.9,0.3,0.9,0.9h0.3c0.3,0,0.6-0.3,0.9-0.9v-0.3L64.7,131.5z M64.7,133.4v0.6h0.9v-0.6H64.7z
		 M72.4,85.9c-0.4,1.6-0.9,2.5-1.5,2.5l0.3,0.6v0.6c0,0.4-0.3,0.6-0.9,0.6c0,0.2,0.1,0.3,0.3,0.3l-0.3,3.1v0.3l0.6,0.9l-0.6,0.9
		l0.6,0.9v0.6h-0.6V98h0.6c0.2-2.5,0.5-3.7,0.9-3.7l-0.3-0.6v-0.9c0-0.2,0.1-0.3,0.3-0.3l-0.3-0.6v-0.9c0-0.2,0.1-0.3,0.3-0.3
		l-0.3-0.6V89c0.6-0.7,1-1.6,1.2-2.8v-0.3H72.4z M70.2,102.9v0.3l0.6,0.9l-0.6,0.9l0.6,0.9l-0.6,0.9l0.6,0.9l-0.6,0.9l0.6,0.9
		l-0.6,0.9l0.6,0.9l-0.6,0.9l0.6,0.9l-0.6,0.9l0.6,0.9v0.3l-0.3,0.6l0.6,0.3v-13.9C70.7,102.8,70.4,102.9,70.2,102.9z M70.8,98.6
		v0.6h0.3v-0.6H70.8z M74.9,91.8l0.3,0.6V93l-0.3,0.6c0.2,0,0.8,0.4,1.8,1.2H77c0-0.5-0.3-1.7-0.9-3.7
		C75.6,91.6,75.2,91.8,74.9,91.8z M75.2,89.6v0.9h0.3v-0.9H75.2z M83.8,174c-0.2,0.4-0.3,0.7-0.3,0.9c0.2,0.4,0.3,0.7,0.3,0.9h0.3
		c0-0.7,0.1-1.2,0.3-1.5L83.8,174z M86.6,178v1.2h0.3V178H86.6z M86.6,179.9v0.6h0.3v-0.6H86.6z M89.9,158c0,0.4-0.1,0.6-0.3,0.6
		l0.3,0.6v0.9c0,0.2-0.1,0.3-0.3,0.3c0.2,0.4,0.3,0.8,0.3,1.2h0.3l0.3-2.2v-0.9C90.6,158.2,90.4,158,89.9,158z M93.6,142.9v13.2h0.9
		v-8.6c0-1,0.1-2.6,0.3-4.6H93.6z M95.5,131.5v0.6h0.6v-1.2C95.7,131,95.5,131.2,95.5,131.5z M95.5,133.4v0.6h0.6v-1.2
		C95.7,132.8,95.5,133,95.5,133.4z M99.8,105.7v0.3h0.6v-0.3H99.8z M99.8,107.5v0.3h0.9v-0.6C100.3,107.4,100,107.5,99.8,107.5z
		 M99.8,109.4v0.3h0.6v-0.3H99.8z M121.1,75.8l0.6,0.3c0-0.8,0.2-1.4,0.6-1.8c-0.2,0-0.3-0.1-0.3-0.3
		C121.4,73.9,121.1,74.5,121.1,75.8z M122.3,63.8v0.3h0.6v-0.3H122.3z M123.5,60.1c0,1.2-0.2,1.8-0.6,1.8c0.2,0.4,0.3,0.8,0.3,1.2
		h0.3c0-0.5,0.1-1.3,0.3-2.5v-0.6H123.5z M126.3,46.2c-1.4,3-2.2,5.7-2.2,8l0.3,1.8c-0.4,0-0.6,0.3-0.6,0.9v0.3h0.3
		c1.4-2.7,2.4-6.3,2.8-10.8L126.3,46.2z M124.1,58.8v0.6h0.3v-0.6H124.1z M126.6,43.4v0.9h0.3c0.8-3.1,1.5-5.1,2.2-5.9
		c0.2-0.8,0.3-1.5,0.3-2.2c-0.7,0-1.2,1-1.5,3.1C127.3,41.6,126.9,43,126.6,43.4z M130,16.6v0.3h0.6v-0.3H130z M132.1,75.5l-0.6,2.8
		c0.1,0.4,0.3,0.6,0.6,0.6l0.3-2.8v-0.6H132.1z M139.2,173.4c0,0.7-0.1,1.2-0.3,1.5c0.2,0.4,0.3,0.8,0.3,1.2l-0.3,0.6
		c0.2,0.4,0.3,0.8,0.3,1.2c-0.4,0.9-1,1.6-1.8,2.2h-0.6c-0.4-0.1-0.8-0.6-1.2-1.5l0.3-1.2c-0.2-0.4-0.3-0.7-0.3-0.9
		c0.2-0.4,0.3-0.7,0.3-0.9c-0.2-0.4-0.3-0.7-0.3-0.9h-0.3v8.6h3.1c0.3-2.6,1.4-4.9,3.4-6.8v-0.3
		C141.1,176.2,140.3,175.3,139.2,173.4z M135.5,173.4v0.9h0.3v-0.9H135.5z M138.6,5.2v0.6h0.3V5.2H138.6z M139.2,164.2v3.1h0.3
		l0.3-3.1H139.2z M140.8,183.3h8.3c0.2-0.1,1.6-1.8,4.3-5.2v-0.3c0-0.4-0.2-0.6-0.6-0.6c0,0.6-0.2,0.9-0.6,0.9
		c-0.3,0-0.6-0.3-0.9-0.9c0-0.4,0.5-0.6,1.5-0.6l-0.3-0.6v-0.3l0.6-0.9c-0.8-1.1-1.2-2-1.2-2.5c-0.5,0-2.3,1.7-5.2,5.2
		c-2.9,3.7-4.8,5.5-5.9,5.5V183.3z M142.3,169.1c0,0.6-0.1,1.3-0.3,2.2h1.2c-0.2-0.4-0.3-0.7-0.3-0.9c0.2-0.4,0.3-0.7,0.3-0.9
		l-0.6-0.3H142.3z M142.6,174.7v0.6h0.3v-0.6H142.6z M146,164.5c0,1.2-0.4,1.8-1.2,1.8c0,0.8-0.4,1.2-1.2,1.2v0.3
		c0.6,0,1.3,0.1,2.2,0.3c0-1.2,0.4-1.8,1.2-1.8l0.3-1.8H146z M143.8,111.5v0.6h0.3v-0.6H143.8z M145.7,114.6c0,0.5-0.3,1.1-0.9,1.8
		v0.3c0.8,0,1.2,0.6,1.2,1.8v1.2l-1.2,1.5c0.3,0,0.8,0.5,1.5,1.5v0.6l-0.6,0.9v1.8h1.5l-0.3-1.5v-2.2c0-0.6,0.6-0.9,1.8-0.9
		l-0.3-1.5l1.2-1.8c-0.4,0-0.6-0.2-0.6-0.6v-0.3l0.3-0.6c-1.2-1.4-2.1-2.2-2.5-2.2H145.7z M146.6,103.2v0.6c0.4,0,0.6-0.2,0.6-0.6
		v-0.6C146.8,102.6,146.6,102.8,146.6,103.2z M146.6,145.4v2.8c0,0.3,0.3,0.6,0.9,0.9c0-0.2,0.1-0.3,0.3-0.3l-0.3-0.6
		c0-0.5,0.1-0.9,0.3-1.2C147.4,146,147,145.5,146.6,145.4z M147.2,154.3v0.3h0.6c0.3,0,0.6-0.3,0.9-0.9v-0.6
		C147.8,153.6,147.2,154,147.2,154.3z M147.5,127.5v0.6c0,0.9,0.6,2.3,1.8,4.3v0.6l-0.9,1.2h1.2c0-0.4,0.1-0.6,0.3-0.6l-0.3-0.6
		l0.3-1.5c0-1.1-0.6-2.3-1.8-3.7v-0.3H147.5z M152.5,109.7c0,0.3-0.5,0.8-1.5,1.5h-0.6c-0.4,0-0.6-0.4-0.6-1.2h-0.3
		c0,1-0.2,1.7-0.6,2.2l2.2,1.8v0.6c0,0.2-0.1,0.3-0.3,0.3c0,0.5,0.6,1.8,1.8,4c-0.7,0.6-1.2,0.9-1.5,0.9c1.2,1.2,1.8,2.1,1.8,2.5
		c-0.1,1.8-0.3,2.8-0.6,2.8l0.3,0.6v0.6l-0.3,0.6c0.4,0,0.6,0.3,0.6,0.9h1.2V126c0-0.4,0.3-0.6,0.6-0.6h0.9l0.6,0.3l0.6-0.9
		l-0.6-0.3l0.3-1.5V122l-1.8,1.5l-0.3-0.6c0.2-0.4,0.3-0.8,0.3-1.2c-0.8,0-1.5-0.7-2.2-2.2l0.3-1.5c-0.6,0-0.9-1.3-0.9-4V113
		c0.8-0.9,1.2-1.7,1.2-2.5v-0.3C153.1,109.9,152.9,109.7,152.5,109.7z M149.4,144.8c0,1.7-0.2,2.9-0.6,3.7l0.6,0.3
		c0-0.2,0.1-0.3,0.3-0.3l-0.3-0.6c0-0.3,0.2-1.2,0.6-2.8L149.4,144.8z M149.4,179.6h0.3c0.4,0.1,0.6,0.3,0.6,0.6v0.3
		c0,0.4-0.2,0.6-0.6,0.6c-0.3,0-0.6-0.3-0.9-0.9C148.8,179.8,149,179.6,149.4,179.6z M149.1,143.2v0.3c0.1,0.4,0.3,0.6,0.6,0.6v-0.9
		H149.1z M149.7,158.3c0,0.4,0.3,0.6,0.6,0.6v-0.6H149.7z M153.7,130l0.3,2.2v1.5c1.2,0,1.8,0.2,1.8,0.6v0.9
		c-0.4,0.5-0.9,2.1-1.5,4.9l-1.2,0.3l-0.3-0.6l0.3-0.6c-0.4,0-1.4-0.9-3.1-2.8v0.6c0.8,1.6,1.2,2.9,1.2,3.7c0.4,0.5,0.6,0.9,0.6,1.2
		l-0.3,0.6c0.2,0.4,0.3,0.8,0.3,1.2c-0.2,0-0.3,0.1-0.3,0.3c0.4,0,0.6,0.3,0.6,0.9h0.3c0-0.4,0.3-0.9,0.9-1.5
		c-0.2-0.4-0.3-0.7-0.3-0.9c0.4,0,0.6-0.2,0.6-0.6c-0.6,0-0.9-0.2-0.9-0.6c0.1-0.4,0.3-0.6,0.6-0.6c0.2,0.4,0.3,0.7,0.3,0.9h0.3
		c0-1,0.7-1.5,2.2-1.5c0.7-1,1.9-2.7,3.7-4.9c-0.7,0-1.2-1.1-1.5-3.4H158c0,0.6-0.4,1.2-1.2,1.8h-0.9c-1.2-1.1-1.8-2.4-1.8-3.7
		H153.7z M150.6,178h0.3c0.4,0.1,0.6,0.3,0.6,0.6v0.3c0,0.4-0.2,0.6-0.6,0.6c-0.3,0-0.6-0.3-0.9-0.9
		C150.1,178.2,150.3,178,150.6,178z M150.6,125.7v0.6c0.2,0.4,0.3,0.8,0.3,1.2h0.3v-0.6c-0.2-0.4-0.3-0.8-0.3-1.2H150.6z
		 M150.6,158.9v0.9h0.3v-0.9H150.6z M151.2,129.1c0.2,0.3,0.3,0.9,0.3,1.8h0.3l0.6-0.3c-0.2-0.8-0.3-1.5-0.3-2.2L151.2,129.1z
		 M151.6,7.7v0.6h0.3V7.7H151.6z M153.1,170l0.3,0.6v0.3l-0.3,0.6c0.4,0.1,0.6,0.3,0.6,0.6c0.4-0.2,0.8-0.3,1.2-0.3v-0.3l-0.6-0.9
		c0-0.4,0.4-0.6,1.2-0.6v-0.3c-0.8,0-1.2-0.1-1.2-0.3L153.1,170z M153.4,102.3v0.3h0.6v-0.3H153.4z M154.9,66.8c0,0.5-0.2,1-0.6,1.5
		v0.3h0.3c0-0.3,0.2-0.7,0.6-1.2v-0.6H154.9z M154.9,124.1l0.3,0.6l-0.6,0.3l-0.3-0.6L154.9,124.1z M154.6,96.4
		c0.2,0.4,0.3,0.7,0.3,0.9c0.4,0,0.6-0.2,0.6-0.6v-0.3H154.6z M156.2,94.6l-0.3,0.6c0.2,0.4,0.3,0.8,0.3,1.2h0.3l0.3-1.5L156.2,94.6
		z M156.5,126.3v0.6h0.3v-0.6H156.5z M157.1,134.3h0.6c0.4,0.1,0.6,0.3,0.6,0.6v0.9c0,0.4-0.2,0.6-0.6,0.6h-0.6
		c-0.4,0-0.6-0.2-0.6-0.6v-0.9C156.5,134.5,156.7,134.3,157.1,134.3z M158,104.4c0,0.7-0.1,1.2-0.3,1.5l0.3,1.8l-0.9,1.2
		c0.6,0,0.9,0.5,0.9,1.5h0.9l-0.3-2.2h0.3c-0.2-0.4-0.3-0.7-0.3-0.9c0-0.2,0.1-0.5,0.3-0.9C158.7,105.1,158.4,104.4,158,104.4z
		 M157.4,117.4c0,0.5-0.1,0.9-0.3,1.2h0.6v-1.2H157.4z M159.6,112.7v0.3c0,1,0.5,1.7,1.5,2.2h1.8v-0.3c-1-1.4-1.6-2.2-1.8-2.2H159.6
		z M159.9,165.1v0.9h0.3c0-1,0.4-1.5,1.2-1.5v-0.9C160.4,164,159.9,164.5,159.9,165.1z M160.5,123.5l0.6,0.3l0.6-0.9h-0.6
		C160.7,123,160.5,123.2,160.5,123.5z M160.5,127.5c0,0.3,0.3,0.6,0.9,0.9h0.3v-0.3c0-0.4-0.2-0.6-0.6-0.6H160.5z M161.4,101.6
		c1,0.7,1.5,1.4,1.5,2.2c0.9-1,1.7-1.7,2.5-2.2c0.4-1.5,0.6-2.4,0.6-2.5c-0.8,0.8-2.1,1.3-4,1.5L161.4,101.6z M162,125.4v0.6h0.3
		v-0.6H162z M162.6,86.9c0,0.2-0.1,0.5-0.3,0.9h0.9c0-0.2,0.1-0.5,0.3-0.9H162.6z M162.3,180.8v0.3h0.9v-0.6
		C162.8,180.7,162.5,180.8,162.3,180.8z M162.9,124.1v0.9c0.3,0,0.9-0.6,1.8-1.8h-0.3C163.8,123.8,163.3,124.1,162.9,124.1z
		 M163.3,106l0.3,0.6c0.4-0.2,0.7-0.3,0.9-0.3V105C163.7,105.3,163.3,105.7,163.3,106z M163.9,179.6v0.3h0.6v-0.3H163.9z
		 M164.8,97.6V98c0.5,0,0.9,0.1,1.2,0.3l0.6-0.9v-1.8C166.4,95.5,165.8,96.2,164.8,97.6z"/>
</g>
</svg>
